<mxfile host="app.diagrams.net" agent="Mozilla/5.0 (Windows NT 10.0; Win64; x64) AppleWebKit/537.36 (KHTML, like Gecko) Chrome/133.0.0.0 Safari/537.36 OPR/118.0.0.0" version="27.0.4">
  <diagram name="Page-1" id="13e1069c-82ec-6db2-03f1-153e76fe0fe0">
    <mxGraphModel dx="1426" dy="889" grid="1" gridSize="10" guides="1" tooltips="1" connect="1" arrows="1" fold="1" page="1" pageScale="1" pageWidth="1169" pageHeight="827" background="none" math="0" shadow="0">
      <root>
        <mxCell id="0" />
        <mxCell id="1" parent="0" />
        <mxCell id="OD1noOk3GFOg6p2n9DRk-7" value="Software" style="shape=umlLifeline;perimeter=lifelinePerimeter;whiteSpace=wrap;html=1;container=1;collapsible=0;recursiveResize=0;outlineConnect=0;rounded=1;shadow=0;comic=0;labelBackgroundColor=none;strokeWidth=1;fontFamily=Verdana;fontSize=12;align=center;" vertex="1" parent="1">
          <mxGeometry x="830" y="100" width="100" height="290" as="geometry" />
        </mxCell>
        <mxCell id="OD1noOk3GFOg6p2n9DRk-8" value="" style="html=1;points=[];perimeter=orthogonalPerimeter;rounded=0;shadow=0;comic=0;labelBackgroundColor=none;strokeWidth=1;fontFamily=Verdana;fontSize=12;align=center;" vertex="1" parent="OD1noOk3GFOg6p2n9DRk-7">
          <mxGeometry x="45" y="90" width="10" height="200" as="geometry" />
        </mxCell>
        <mxCell id="OD1noOk3GFOg6p2n9DRk-9" value="No Se Puede Modificar" style="html=1;verticalAlign=bottom;endArrow=open;dashed=1;endSize=8;labelBackgroundColor=none;fontFamily=Verdana;fontSize=12;edgeStyle=elbowEdgeStyle;elbow=vertical;" edge="1" parent="OD1noOk3GFOg6p2n9DRk-7">
          <mxGeometry relative="1" as="geometry">
            <mxPoint x="-111.03846153846143" y="180" as="targetPoint" />
            <Array as="points">
              <mxPoint x="20" y="180" />
              <mxPoint x="-50" y="170" />
              <mxPoint x="20" y="170" />
            </Array>
            <mxPoint x="45" y="170" as="sourcePoint" />
          </mxGeometry>
        </mxCell>
        <mxCell id="OD1noOk3GFOg6p2n9DRk-10" value="BBDD" style="shape=umlLifeline;perimeter=lifelinePerimeter;whiteSpace=wrap;html=1;container=1;collapsible=0;recursiveResize=0;outlineConnect=0;rounded=1;shadow=0;comic=0;labelBackgroundColor=none;strokeWidth=1;fontFamily=Verdana;fontSize=12;align=center;" vertex="1" parent="1">
          <mxGeometry x="970" y="100" width="100" height="290" as="geometry" />
        </mxCell>
        <mxCell id="OD1noOk3GFOg6p2n9DRk-11" value="No Existe" style="html=1;verticalAlign=bottom;endArrow=open;dashed=1;endSize=8;labelBackgroundColor=none;fontFamily=Verdana;fontSize=12;edgeStyle=elbowEdgeStyle;elbow=vertical;" edge="1" parent="OD1noOk3GFOg6p2n9DRk-10">
          <mxGeometry relative="1" as="geometry">
            <mxPoint x="-90" y="170" as="targetPoint" />
            <Array as="points">
              <mxPoint x="-50" y="170" />
              <mxPoint x="20" y="170" />
            </Array>
            <mxPoint x="45" y="170" as="sourcePoint" />
          </mxGeometry>
        </mxCell>
        <mxCell id="OD1noOk3GFOg6p2n9DRk-12" value="Â¿Existe?" style="html=1;verticalAlign=bottom;endArrow=block;labelBackgroundColor=none;fontFamily=Verdana;fontSize=12;elbow=vertical;edgeStyle=orthogonalEdgeStyle;curved=1;entryX=1;entryY=0.286;entryPerimeter=0;exitX=1.038;exitY=0.345;exitPerimeter=0;" edge="1" parent="OD1noOk3GFOg6p2n9DRk-10">
          <mxGeometry x="-0.093" y="15" relative="1" as="geometry">
            <mxPoint x="54.999999999999886" y="120.00000000000014" as="sourcePoint" />
            <mxPoint x="59.61999999999978" y="157.91999999999996" as="targetPoint" />
            <Array as="points">
              <mxPoint x="109.62" y="119.9" />
              <mxPoint x="109.62" y="157.89999999999998" />
            </Array>
            <mxPoint as="offset" />
          </mxGeometry>
        </mxCell>
        <mxCell id="OD1noOk3GFOg6p2n9DRk-13" value="" style="html=1;points=[];perimeter=orthogonalPerimeter;rounded=0;shadow=0;comic=0;labelBackgroundColor=none;strokeWidth=1;fontFamily=Verdana;fontSize=12;align=center;" vertex="1" parent="OD1noOk3GFOg6p2n9DRk-10">
          <mxGeometry x="50" y="140" width="10" height="50" as="geometry" />
        </mxCell>
        <mxCell id="OD1noOk3GFOg6p2n9DRk-14" value="Existe" style="html=1;verticalAlign=bottom;endArrow=open;dashed=1;endSize=8;labelBackgroundColor=none;fontFamily=Verdana;fontSize=12;edgeStyle=elbowEdgeStyle;elbow=vertical;entryX=0.871;entryY=0.845;entryDx=0;entryDy=0;entryPerimeter=0;" edge="1" parent="OD1noOk3GFOg6p2n9DRk-10" target="OD1noOk3GFOg6p2n9DRk-8">
          <mxGeometry relative="1" as="geometry">
            <mxPoint x="-80" y="259.29" as="targetPoint" />
            <Array as="points">
              <mxPoint x="-50" y="259.29" />
              <mxPoint x="20" y="259.29" />
            </Array>
            <mxPoint x="45" y="259.29" as="sourcePoint" />
          </mxGeometry>
        </mxCell>
        <mxCell id="OD1noOk3GFOg6p2n9DRk-15" value="Admin" style="shape=umlLifeline;perimeter=lifelinePerimeter;whiteSpace=wrap;html=1;container=1;collapsible=0;recursiveResize=0;outlineConnect=0;rounded=1;shadow=0;comic=0;labelBackgroundColor=none;strokeWidth=1;fontFamily=Verdana;fontSize=12;align=center;" vertex="1" parent="1">
          <mxGeometry x="670" y="100" width="100" height="290" as="geometry" />
        </mxCell>
        <mxCell id="OD1noOk3GFOg6p2n9DRk-16" value="" style="html=1;points=[];perimeter=orthogonalPerimeter;rounded=0;shadow=0;comic=0;labelBackgroundColor=none;strokeWidth=1;fontFamily=Verdana;fontSize=12;align=center;" vertex="1" parent="OD1noOk3GFOg6p2n9DRk-15">
          <mxGeometry x="45" y="70" width="10" height="220" as="geometry" />
        </mxCell>
        <mxCell id="OD1noOk3GFOg6p2n9DRk-17" value="" style="html=1;points=[];perimeter=orthogonalPerimeter;rounded=0;shadow=0;comic=0;labelBackgroundColor=none;strokeWidth=1;fontFamily=Verdana;fontSize=12;align=center;" vertex="1" parent="1">
          <mxGeometry x="1015" y="210" width="10" height="180" as="geometry" />
        </mxCell>
        <mxCell id="OD1noOk3GFOg6p2n9DRk-18" value="Verificar Cliente" style="html=1;verticalAlign=bottom;endArrow=block;labelBackgroundColor=none;fontFamily=Verdana;fontSize=12;edgeStyle=elbowEdgeStyle;elbow=vertical;" edge="1" parent="1" source="OD1noOk3GFOg6p2n9DRk-8" target="OD1noOk3GFOg6p2n9DRk-17">
          <mxGeometry x="0.011" relative="1" as="geometry">
            <mxPoint x="940" y="210" as="sourcePoint" />
            <Array as="points">
              <mxPoint x="890" y="210" />
            </Array>
            <mxPoint as="offset" />
          </mxGeometry>
        </mxCell>
        <mxCell id="OD1noOk3GFOg6p2n9DRk-19" value="Modificar Cliente" style="html=1;verticalAlign=bottom;endArrow=block;entryX=0;entryY=0;labelBackgroundColor=none;fontFamily=Verdana;fontSize=12;edgeStyle=elbowEdgeStyle;elbow=vertical;" edge="1" parent="1" target="OD1noOk3GFOg6p2n9DRk-8">
          <mxGeometry relative="1" as="geometry">
            <mxPoint x="724.9999999999998" y="189.57142857142867" as="sourcePoint" />
          </mxGeometry>
        </mxCell>
        <mxCell id="OD1noOk3GFOg6p2n9DRk-20" value="alt" style="shape=umlFrame;whiteSpace=wrap;html=1;pointerEvents=0;width=30;height=20;" vertex="1" parent="1">
          <mxGeometry x="670" y="230" width="390" height="90" as="geometry" />
        </mxCell>
        <mxCell id="OD1noOk3GFOg6p2n9DRk-21" value="Se Puede Modificar" style="html=1;verticalAlign=bottom;endArrow=open;dashed=1;endSize=8;labelBackgroundColor=none;fontFamily=Verdana;fontSize=12;edgeStyle=elbowEdgeStyle;elbow=vertical;" edge="1" parent="1">
          <mxGeometry relative="1" as="geometry">
            <mxPoint x="719.0714285714287" y="370" as="targetPoint" />
            <Array as="points">
              <mxPoint x="780" y="370" />
              <mxPoint x="850" y="370" />
            </Array>
            <mxPoint x="875" y="370" as="sourcePoint" />
          </mxGeometry>
        </mxCell>
        <mxCell id="OD1noOk3GFOg6p2n9DRk-22" value="MODIFICAR CLIENTE" style="rounded=0;whiteSpace=wrap;html=1;" vertex="1" parent="1">
          <mxGeometry x="820" y="20" width="120" height="60" as="geometry" />
        </mxCell>
        <mxCell id="OD1noOk3GFOg6p2n9DRk-23" value="Software" style="shape=umlLifeline;perimeter=lifelinePerimeter;whiteSpace=wrap;html=1;container=1;collapsible=0;recursiveResize=0;outlineConnect=0;rounded=1;shadow=0;comic=0;labelBackgroundColor=none;strokeWidth=1;fontFamily=Verdana;fontSize=12;align=center;" vertex="1" parent="1">
          <mxGeometry x="240" y="100" width="100" height="290" as="geometry" />
        </mxCell>
        <mxCell id="OD1noOk3GFOg6p2n9DRk-24" value="" style="html=1;points=[];perimeter=orthogonalPerimeter;rounded=0;shadow=0;comic=0;labelBackgroundColor=none;strokeWidth=1;fontFamily=Verdana;fontSize=12;align=center;" vertex="1" parent="OD1noOk3GFOg6p2n9DRk-23">
          <mxGeometry x="45" y="90" width="10" height="200" as="geometry" />
        </mxCell>
        <mxCell id="OD1noOk3GFOg6p2n9DRk-25" value="Mensaje Error" style="html=1;verticalAlign=bottom;endArrow=open;dashed=1;endSize=8;labelBackgroundColor=none;fontFamily=Verdana;fontSize=12;edgeStyle=elbowEdgeStyle;elbow=vertical;" edge="1" parent="OD1noOk3GFOg6p2n9DRk-23">
          <mxGeometry relative="1" as="geometry">
            <mxPoint x="-111.03846153846143" y="180" as="targetPoint" />
            <Array as="points">
              <mxPoint x="20" y="180" />
              <mxPoint x="-50" y="170" />
              <mxPoint x="20" y="170" />
            </Array>
            <mxPoint x="45" y="170" as="sourcePoint" />
          </mxGeometry>
        </mxCell>
        <mxCell id="OD1noOk3GFOg6p2n9DRk-26" value="BBDD" style="shape=umlLifeline;perimeter=lifelinePerimeter;whiteSpace=wrap;html=1;container=1;collapsible=0;recursiveResize=0;outlineConnect=0;rounded=1;shadow=0;comic=0;labelBackgroundColor=none;strokeWidth=1;fontFamily=Verdana;fontSize=12;align=center;" vertex="1" parent="1">
          <mxGeometry x="380" y="100" width="100" height="290" as="geometry" />
        </mxCell>
        <mxCell id="OD1noOk3GFOg6p2n9DRk-27" value="No Existe" style="html=1;verticalAlign=bottom;endArrow=open;dashed=1;endSize=8;labelBackgroundColor=none;fontFamily=Verdana;fontSize=12;edgeStyle=elbowEdgeStyle;elbow=vertical;entryX=1.243;entryY=0.405;entryDx=0;entryDy=0;entryPerimeter=0;" edge="1" parent="OD1noOk3GFOg6p2n9DRk-26" target="OD1noOk3GFOg6p2n9DRk-24">
          <mxGeometry relative="1" as="geometry">
            <mxPoint x="-80" y="170" as="targetPoint" />
            <Array as="points">
              <mxPoint x="-50" y="170" />
              <mxPoint x="20" y="170" />
            </Array>
            <mxPoint x="45" y="170" as="sourcePoint" />
          </mxGeometry>
        </mxCell>
        <mxCell id="OD1noOk3GFOg6p2n9DRk-28" value="Â¿Existe?" style="html=1;verticalAlign=bottom;endArrow=block;labelBackgroundColor=none;fontFamily=Verdana;fontSize=12;elbow=vertical;edgeStyle=orthogonalEdgeStyle;curved=1;entryX=1;entryY=0.286;entryPerimeter=0;exitX=1.038;exitY=0.345;exitPerimeter=0;" edge="1" parent="OD1noOk3GFOg6p2n9DRk-26">
          <mxGeometry x="-0.093" y="15" relative="1" as="geometry">
            <mxPoint x="54.999999999999886" y="120.00000000000014" as="sourcePoint" />
            <mxPoint x="59.61999999999978" y="157.91999999999996" as="targetPoint" />
            <Array as="points">
              <mxPoint x="109.62" y="119.9" />
              <mxPoint x="109.62" y="157.89999999999998" />
            </Array>
            <mxPoint as="offset" />
          </mxGeometry>
        </mxCell>
        <mxCell id="OD1noOk3GFOg6p2n9DRk-29" value="" style="html=1;points=[];perimeter=orthogonalPerimeter;rounded=0;shadow=0;comic=0;labelBackgroundColor=none;strokeWidth=1;fontFamily=Verdana;fontSize=12;align=center;" vertex="1" parent="OD1noOk3GFOg6p2n9DRk-26">
          <mxGeometry x="50" y="140" width="10" height="50" as="geometry" />
        </mxCell>
        <mxCell id="OD1noOk3GFOg6p2n9DRk-30" value="Existe" style="html=1;verticalAlign=bottom;endArrow=open;dashed=1;endSize=8;labelBackgroundColor=none;fontFamily=Verdana;fontSize=12;edgeStyle=elbowEdgeStyle;elbow=vertical;entryX=0.5;entryY=0.846;entryDx=0;entryDy=0;entryPerimeter=0;" edge="1" parent="OD1noOk3GFOg6p2n9DRk-26" target="OD1noOk3GFOg6p2n9DRk-24">
          <mxGeometry relative="1" as="geometry">
            <mxPoint x="-80" y="259.29" as="targetPoint" />
            <Array as="points">
              <mxPoint x="-50" y="259.29" />
              <mxPoint x="20" y="259.29" />
            </Array>
            <mxPoint x="45" y="259.29" as="sourcePoint" />
          </mxGeometry>
        </mxCell>
        <mxCell id="OD1noOk3GFOg6p2n9DRk-31" value="Admin" style="shape=umlLifeline;perimeter=lifelinePerimeter;whiteSpace=wrap;html=1;container=1;collapsible=0;recursiveResize=0;outlineConnect=0;rounded=1;shadow=0;comic=0;labelBackgroundColor=none;strokeWidth=1;fontFamily=Verdana;fontSize=12;align=center;" vertex="1" parent="1">
          <mxGeometry x="80" y="100" width="100" height="290" as="geometry" />
        </mxCell>
        <mxCell id="OD1noOk3GFOg6p2n9DRk-32" value="" style="html=1;points=[];perimeter=orthogonalPerimeter;rounded=0;shadow=0;comic=0;labelBackgroundColor=none;strokeWidth=1;fontFamily=Verdana;fontSize=12;align=center;" vertex="1" parent="OD1noOk3GFOg6p2n9DRk-31">
          <mxGeometry x="45" y="70" width="10" height="220" as="geometry" />
        </mxCell>
        <mxCell id="OD1noOk3GFOg6p2n9DRk-33" value="" style="html=1;points=[];perimeter=orthogonalPerimeter;rounded=0;shadow=0;comic=0;labelBackgroundColor=none;strokeWidth=1;fontFamily=Verdana;fontSize=12;align=center;" vertex="1" parent="1">
          <mxGeometry x="425" y="210" width="10" height="180" as="geometry" />
        </mxCell>
        <mxCell id="OD1noOk3GFOg6p2n9DRk-34" value="Â¿VerificaciÃ³n Cliente?" style="html=1;verticalAlign=bottom;endArrow=block;labelBackgroundColor=none;fontFamily=Verdana;fontSize=12;edgeStyle=elbowEdgeStyle;elbow=vertical;" edge="1" parent="1" source="OD1noOk3GFOg6p2n9DRk-24" target="OD1noOk3GFOg6p2n9DRk-33">
          <mxGeometry x="0.011" relative="1" as="geometry">
            <mxPoint x="350" y="210" as="sourcePoint" />
            <Array as="points">
              <mxPoint x="300" y="210" />
            </Array>
            <mxPoint as="offset" />
          </mxGeometry>
        </mxCell>
        <mxCell id="OD1noOk3GFOg6p2n9DRk-35" value="Baja Cliente" style="html=1;verticalAlign=bottom;endArrow=block;entryX=0;entryY=0;labelBackgroundColor=none;fontFamily=Verdana;fontSize=12;edgeStyle=elbowEdgeStyle;elbow=vertical;" edge="1" parent="1" target="OD1noOk3GFOg6p2n9DRk-24">
          <mxGeometry relative="1" as="geometry">
            <mxPoint x="134.99999999999977" y="189.57142857142867" as="sourcePoint" />
          </mxGeometry>
        </mxCell>
        <mxCell id="OD1noOk3GFOg6p2n9DRk-36" value="alt" style="shape=umlFrame;whiteSpace=wrap;html=1;pointerEvents=0;width=30;height=20;" vertex="1" parent="1">
          <mxGeometry x="80" y="230" width="390" height="80" as="geometry" />
        </mxCell>
        <mxCell id="OD1noOk3GFOg6p2n9DRk-37" value="Baja Confirmada" style="html=1;verticalAlign=bottom;endArrow=open;dashed=1;endSize=8;labelBackgroundColor=none;fontFamily=Verdana;fontSize=12;edgeStyle=elbowEdgeStyle;elbow=vertical;" edge="1" parent="1">
          <mxGeometry relative="1" as="geometry">
            <mxPoint x="129.07142857142867" y="370" as="targetPoint" />
            <Array as="points">
              <mxPoint x="190" y="370" />
              <mxPoint x="260" y="370" />
            </Array>
            <mxPoint x="285" y="370" as="sourcePoint" />
          </mxGeometry>
        </mxCell>
        <mxCell id="OD1noOk3GFOg6p2n9DRk-38" value="BAJA CLIENTE" style="rounded=0;whiteSpace=wrap;html=1;" vertex="1" parent="1">
          <mxGeometry x="230" y="20" width="120" height="60" as="geometry" />
        </mxCell>
        <mxCell id="OD1noOk3GFOg6p2n9DRk-126" value="Software" style="shape=umlLifeline;perimeter=lifelinePerimeter;whiteSpace=wrap;html=1;container=1;collapsible=0;recursiveResize=0;outlineConnect=0;rounded=1;shadow=0;comic=0;labelBackgroundColor=none;strokeWidth=1;fontFamily=Verdana;fontSize=12;align=center;" vertex="1" parent="1">
          <mxGeometry x="840" y="510" width="100" height="290" as="geometry" />
        </mxCell>
        <mxCell id="OD1noOk3GFOg6p2n9DRk-127" value="" style="html=1;points=[];perimeter=orthogonalPerimeter;rounded=0;shadow=0;comic=0;labelBackgroundColor=none;strokeWidth=1;fontFamily=Verdana;fontSize=12;align=center;" vertex="1" parent="OD1noOk3GFOg6p2n9DRk-126">
          <mxGeometry x="45" y="90" width="10" height="200" as="geometry" />
        </mxCell>
        <mxCell id="OD1noOk3GFOg6p2n9DRk-128" value="No Muestra Nada" style="html=1;verticalAlign=bottom;endArrow=open;dashed=1;endSize=8;labelBackgroundColor=none;fontFamily=Verdana;fontSize=12;edgeStyle=elbowEdgeStyle;elbow=vertical;" edge="1" parent="OD1noOk3GFOg6p2n9DRk-126">
          <mxGeometry relative="1" as="geometry">
            <mxPoint x="-111.03846153846143" y="180" as="targetPoint" />
            <Array as="points">
              <mxPoint x="20" y="180" />
              <mxPoint x="-50" y="170" />
              <mxPoint x="20" y="170" />
            </Array>
            <mxPoint x="45" y="170" as="sourcePoint" />
          </mxGeometry>
        </mxCell>
        <mxCell id="OD1noOk3GFOg6p2n9DRk-129" value="BBDD" style="shape=umlLifeline;perimeter=lifelinePerimeter;whiteSpace=wrap;html=1;container=1;collapsible=0;recursiveResize=0;outlineConnect=0;rounded=1;shadow=0;comic=0;labelBackgroundColor=none;strokeWidth=1;fontFamily=Verdana;fontSize=12;align=center;" vertex="1" parent="1">
          <mxGeometry x="980" y="510" width="100" height="290" as="geometry" />
        </mxCell>
        <mxCell id="OD1noOk3GFOg6p2n9DRk-130" value="No Existe" style="html=1;verticalAlign=bottom;endArrow=open;dashed=1;endSize=8;labelBackgroundColor=none;fontFamily=Verdana;fontSize=12;edgeStyle=elbowEdgeStyle;elbow=vertical;" edge="1" parent="OD1noOk3GFOg6p2n9DRk-129">
          <mxGeometry relative="1" as="geometry">
            <mxPoint x="-80" y="170" as="targetPoint" />
            <Array as="points">
              <mxPoint x="-50" y="170" />
              <mxPoint x="20" y="170" />
            </Array>
            <mxPoint x="45" y="170" as="sourcePoint" />
          </mxGeometry>
        </mxCell>
        <mxCell id="OD1noOk3GFOg6p2n9DRk-131" value="Â¿Existe?" style="html=1;verticalAlign=bottom;endArrow=block;labelBackgroundColor=none;fontFamily=Verdana;fontSize=12;elbow=vertical;edgeStyle=orthogonalEdgeStyle;curved=1;entryX=1;entryY=0.286;entryPerimeter=0;exitX=1.038;exitY=0.345;exitPerimeter=0;" edge="1" parent="OD1noOk3GFOg6p2n9DRk-129">
          <mxGeometry x="-0.093" y="15" relative="1" as="geometry">
            <mxPoint x="54.999999999999886" y="120.00000000000014" as="sourcePoint" />
            <mxPoint x="59.61999999999978" y="157.91999999999996" as="targetPoint" />
            <Array as="points">
              <mxPoint x="109.62" y="119.9" />
              <mxPoint x="109.62" y="157.89999999999998" />
            </Array>
            <mxPoint as="offset" />
          </mxGeometry>
        </mxCell>
        <mxCell id="OD1noOk3GFOg6p2n9DRk-132" value="" style="html=1;points=[];perimeter=orthogonalPerimeter;rounded=0;shadow=0;comic=0;labelBackgroundColor=none;strokeWidth=1;fontFamily=Verdana;fontSize=12;align=center;" vertex="1" parent="OD1noOk3GFOg6p2n9DRk-129">
          <mxGeometry x="50" y="140" width="10" height="50" as="geometry" />
        </mxCell>
        <mxCell id="OD1noOk3GFOg6p2n9DRk-133" value="Existe" style="html=1;verticalAlign=bottom;endArrow=open;dashed=1;endSize=8;labelBackgroundColor=none;fontFamily=Verdana;fontSize=12;edgeStyle=elbowEdgeStyle;elbow=vertical;" edge="1" parent="OD1noOk3GFOg6p2n9DRk-129">
          <mxGeometry relative="1" as="geometry">
            <mxPoint x="-80" y="259.29" as="targetPoint" />
            <Array as="points">
              <mxPoint x="-50" y="259.29" />
              <mxPoint x="20" y="259.29" />
            </Array>
            <mxPoint x="45" y="259.29" as="sourcePoint" />
          </mxGeometry>
        </mxCell>
        <mxCell id="OD1noOk3GFOg6p2n9DRk-134" value="Admin" style="shape=umlLifeline;perimeter=lifelinePerimeter;whiteSpace=wrap;html=1;container=1;collapsible=0;recursiveResize=0;outlineConnect=0;rounded=1;shadow=0;comic=0;labelBackgroundColor=none;strokeWidth=1;fontFamily=Verdana;fontSize=12;align=center;" vertex="1" parent="1">
          <mxGeometry x="680" y="510" width="100" height="290" as="geometry" />
        </mxCell>
        <mxCell id="OD1noOk3GFOg6p2n9DRk-135" value="" style="html=1;points=[];perimeter=orthogonalPerimeter;rounded=0;shadow=0;comic=0;labelBackgroundColor=none;strokeWidth=1;fontFamily=Verdana;fontSize=12;align=center;" vertex="1" parent="OD1noOk3GFOg6p2n9DRk-134">
          <mxGeometry x="45" y="70" width="10" height="220" as="geometry" />
        </mxCell>
        <mxCell id="OD1noOk3GFOg6p2n9DRk-136" value="" style="html=1;points=[];perimeter=orthogonalPerimeter;rounded=0;shadow=0;comic=0;labelBackgroundColor=none;strokeWidth=1;fontFamily=Verdana;fontSize=12;align=center;" vertex="1" parent="1">
          <mxGeometry x="1025" y="620" width="10" height="180" as="geometry" />
        </mxCell>
        <mxCell id="OD1noOk3GFOg6p2n9DRk-137" value="Â¿Existe?" style="html=1;verticalAlign=bottom;endArrow=block;labelBackgroundColor=none;fontFamily=Verdana;fontSize=12;edgeStyle=elbowEdgeStyle;elbow=vertical;" edge="1" parent="1" source="OD1noOk3GFOg6p2n9DRk-127" target="OD1noOk3GFOg6p2n9DRk-136">
          <mxGeometry x="0.011" relative="1" as="geometry">
            <mxPoint x="950" y="620" as="sourcePoint" />
            <Array as="points">
              <mxPoint x="900" y="620" />
            </Array>
            <mxPoint as="offset" />
          </mxGeometry>
        </mxCell>
        <mxCell id="OD1noOk3GFOg6p2n9DRk-138" value="Consultar Cliente" style="html=1;verticalAlign=bottom;endArrow=block;entryX=0;entryY=0;labelBackgroundColor=none;fontFamily=Verdana;fontSize=12;edgeStyle=elbowEdgeStyle;elbow=vertical;" edge="1" parent="1" target="OD1noOk3GFOg6p2n9DRk-127">
          <mxGeometry relative="1" as="geometry">
            <mxPoint x="734.9999999999998" y="599.5714285714287" as="sourcePoint" />
          </mxGeometry>
        </mxCell>
        <mxCell id="OD1noOk3GFOg6p2n9DRk-139" value="alt" style="shape=umlFrame;whiteSpace=wrap;html=1;pointerEvents=0;width=30;height=20;" vertex="1" parent="1">
          <mxGeometry x="680" y="640" width="390" height="80" as="geometry" />
        </mxCell>
        <mxCell id="OD1noOk3GFOg6p2n9DRk-140" value="Muestra Datos" style="html=1;verticalAlign=bottom;endArrow=open;dashed=1;endSize=8;labelBackgroundColor=none;fontFamily=Verdana;fontSize=12;edgeStyle=elbowEdgeStyle;elbow=vertical;" edge="1" parent="1">
          <mxGeometry relative="1" as="geometry">
            <mxPoint x="729.0714285714287" y="780" as="targetPoint" />
            <Array as="points">
              <mxPoint x="790" y="780" />
              <mxPoint x="860" y="780" />
            </Array>
            <mxPoint x="885" y="780" as="sourcePoint" />
          </mxGeometry>
        </mxCell>
        <mxCell id="OD1noOk3GFOg6p2n9DRk-141" value="CONSULTA CLIENTE" style="rounded=0;whiteSpace=wrap;html=1;" vertex="1" parent="1">
          <mxGeometry x="830" y="430" width="120" height="60" as="geometry" />
        </mxCell>
        <mxCell id="OD1noOk3GFOg6p2n9DRk-142" value="Software" style="shape=umlLifeline;perimeter=lifelinePerimeter;whiteSpace=wrap;html=1;container=1;collapsible=0;recursiveResize=0;outlineConnect=0;rounded=1;shadow=0;comic=0;labelBackgroundColor=none;strokeWidth=1;fontFamily=Verdana;fontSize=12;align=center;" vertex="1" parent="1">
          <mxGeometry x="250" y="510" width="100" height="290" as="geometry" />
        </mxCell>
        <mxCell id="OD1noOk3GFOg6p2n9DRk-143" value="" style="html=1;points=[];perimeter=orthogonalPerimeter;rounded=0;shadow=0;comic=0;labelBackgroundColor=none;strokeWidth=1;fontFamily=Verdana;fontSize=12;align=center;" vertex="1" parent="OD1noOk3GFOg6p2n9DRk-142">
          <mxGeometry x="45" y="90" width="10" height="200" as="geometry" />
        </mxCell>
        <mxCell id="OD1noOk3GFOg6p2n9DRk-144" value="Mensaje Error" style="html=1;verticalAlign=bottom;endArrow=open;dashed=1;endSize=8;labelBackgroundColor=none;fontFamily=Verdana;fontSize=12;edgeStyle=elbowEdgeStyle;elbow=vertical;" edge="1" parent="OD1noOk3GFOg6p2n9DRk-142">
          <mxGeometry relative="1" as="geometry">
            <mxPoint x="-111.03846153846143" y="180" as="targetPoint" />
            <Array as="points">
              <mxPoint x="20" y="180" />
              <mxPoint x="-50" y="170" />
              <mxPoint x="20" y="170" />
            </Array>
            <mxPoint x="45" y="170" as="sourcePoint" />
          </mxGeometry>
        </mxCell>
        <mxCell id="OD1noOk3GFOg6p2n9DRk-145" value="BBDD" style="shape=umlLifeline;perimeter=lifelinePerimeter;whiteSpace=wrap;html=1;container=1;collapsible=0;recursiveResize=0;outlineConnect=0;rounded=1;shadow=0;comic=0;labelBackgroundColor=none;strokeWidth=1;fontFamily=Verdana;fontSize=12;align=center;" vertex="1" parent="1">
          <mxGeometry x="390" y="510" width="100" height="290" as="geometry" />
        </mxCell>
        <mxCell id="OD1noOk3GFOg6p2n9DRk-146" value="Existe" style="html=1;verticalAlign=bottom;endArrow=open;dashed=1;endSize=8;labelBackgroundColor=none;fontFamily=Verdana;fontSize=12;edgeStyle=elbowEdgeStyle;elbow=vertical;" edge="1" parent="OD1noOk3GFOg6p2n9DRk-145">
          <mxGeometry relative="1" as="geometry">
            <mxPoint x="-80" y="170" as="targetPoint" />
            <Array as="points">
              <mxPoint x="-50" y="170" />
              <mxPoint x="20" y="170" />
            </Array>
            <mxPoint x="45" y="170" as="sourcePoint" />
          </mxGeometry>
        </mxCell>
        <mxCell id="OD1noOk3GFOg6p2n9DRk-147" value="Â¿Existe?" style="html=1;verticalAlign=bottom;endArrow=block;labelBackgroundColor=none;fontFamily=Verdana;fontSize=12;elbow=vertical;edgeStyle=orthogonalEdgeStyle;curved=1;entryX=1;entryY=0.286;entryPerimeter=0;exitX=1.038;exitY=0.345;exitPerimeter=0;" edge="1" parent="OD1noOk3GFOg6p2n9DRk-145">
          <mxGeometry x="-0.097" y="15" relative="1" as="geometry">
            <mxPoint x="54.999999999999886" y="120.00000000000014" as="sourcePoint" />
            <mxPoint x="59.61999999999978" y="157.91999999999996" as="targetPoint" />
            <Array as="points">
              <mxPoint x="109.62" y="119.9" />
              <mxPoint x="109.62" y="157.89999999999998" />
            </Array>
            <mxPoint as="offset" />
          </mxGeometry>
        </mxCell>
        <mxCell id="OD1noOk3GFOg6p2n9DRk-148" value="" style="html=1;points=[];perimeter=orthogonalPerimeter;rounded=0;shadow=0;comic=0;labelBackgroundColor=none;strokeWidth=1;fontFamily=Verdana;fontSize=12;align=center;" vertex="1" parent="OD1noOk3GFOg6p2n9DRk-145">
          <mxGeometry x="50" y="140" width="10" height="50" as="geometry" />
        </mxCell>
        <mxCell id="OD1noOk3GFOg6p2n9DRk-149" value="No Existe" style="html=1;verticalAlign=bottom;endArrow=open;dashed=1;endSize=8;labelBackgroundColor=none;fontFamily=Verdana;fontSize=12;edgeStyle=elbowEdgeStyle;elbow=vertical;" edge="1" parent="OD1noOk3GFOg6p2n9DRk-145">
          <mxGeometry relative="1" as="geometry">
            <mxPoint x="-80" y="259.29" as="targetPoint" />
            <Array as="points">
              <mxPoint x="-50" y="259.29" />
              <mxPoint x="20" y="259.29" />
            </Array>
            <mxPoint x="45" y="259.29" as="sourcePoint" />
          </mxGeometry>
        </mxCell>
        <mxCell id="OD1noOk3GFOg6p2n9DRk-150" value="Admin" style="shape=umlLifeline;perimeter=lifelinePerimeter;whiteSpace=wrap;html=1;container=1;collapsible=0;recursiveResize=0;outlineConnect=0;rounded=1;shadow=0;comic=0;labelBackgroundColor=none;strokeWidth=1;fontFamily=Verdana;fontSize=12;align=center;" vertex="1" parent="1">
          <mxGeometry x="90" y="510" width="100" height="290" as="geometry" />
        </mxCell>
        <mxCell id="OD1noOk3GFOg6p2n9DRk-151" value="" style="html=1;points=[];perimeter=orthogonalPerimeter;rounded=0;shadow=0;comic=0;labelBackgroundColor=none;strokeWidth=1;fontFamily=Verdana;fontSize=12;align=center;" vertex="1" parent="OD1noOk3GFOg6p2n9DRk-150">
          <mxGeometry x="45" y="70" width="10" height="220" as="geometry" />
        </mxCell>
        <mxCell id="OD1noOk3GFOg6p2n9DRk-152" value="" style="html=1;points=[];perimeter=orthogonalPerimeter;rounded=0;shadow=0;comic=0;labelBackgroundColor=none;strokeWidth=1;fontFamily=Verdana;fontSize=12;align=center;" vertex="1" parent="1">
          <mxGeometry x="435" y="620" width="10" height="180" as="geometry" />
        </mxCell>
        <mxCell id="OD1noOk3GFOg6p2n9DRk-153" value="Â¿Existe?" style="html=1;verticalAlign=bottom;endArrow=block;labelBackgroundColor=none;fontFamily=Verdana;fontSize=12;edgeStyle=elbowEdgeStyle;elbow=vertical;" edge="1" parent="1" source="OD1noOk3GFOg6p2n9DRk-143" target="OD1noOk3GFOg6p2n9DRk-152">
          <mxGeometry x="0.011" relative="1" as="geometry">
            <mxPoint x="360" y="620" as="sourcePoint" />
            <Array as="points">
              <mxPoint x="310" y="620" />
            </Array>
            <mxPoint as="offset" />
          </mxGeometry>
        </mxCell>
        <mxCell id="OD1noOk3GFOg6p2n9DRk-154" value="Agregar Cliente" style="html=1;verticalAlign=bottom;endArrow=block;entryX=0;entryY=0;labelBackgroundColor=none;fontFamily=Verdana;fontSize=12;edgeStyle=elbowEdgeStyle;elbow=vertical;" edge="1" parent="1" target="OD1noOk3GFOg6p2n9DRk-143">
          <mxGeometry relative="1" as="geometry">
            <mxPoint x="144.99999999999977" y="599.5714285714287" as="sourcePoint" />
          </mxGeometry>
        </mxCell>
        <mxCell id="OD1noOk3GFOg6p2n9DRk-155" value="alt" style="shape=umlFrame;whiteSpace=wrap;html=1;pointerEvents=0;width=30;height=20;" vertex="1" parent="1">
          <mxGeometry x="90" y="640" width="390" height="80" as="geometry" />
        </mxCell>
        <mxCell id="OD1noOk3GFOg6p2n9DRk-156" value="Cliente Agregado" style="html=1;verticalAlign=bottom;endArrow=open;dashed=1;endSize=8;labelBackgroundColor=none;fontFamily=Verdana;fontSize=12;edgeStyle=elbowEdgeStyle;elbow=vertical;" edge="1" parent="1">
          <mxGeometry relative="1" as="geometry">
            <mxPoint x="139.07142857142867" y="780" as="targetPoint" />
            <Array as="points">
              <mxPoint x="200" y="780" />
              <mxPoint x="270" y="780" />
            </Array>
            <mxPoint x="295" y="780" as="sourcePoint" />
          </mxGeometry>
        </mxCell>
        <mxCell id="OD1noOk3GFOg6p2n9DRk-157" value="ALTA CLIENTE" style="rounded=0;whiteSpace=wrap;html=1;" vertex="1" parent="1">
          <mxGeometry x="240" y="430" width="120" height="60" as="geometry" />
        </mxCell>
      </root>
    </mxGraphModel>
  </diagram>
</mxfile>
